HIERARCHY
ROOT Hips
{
	OFFSET 0.000000 0.000000 0.000000
	CHANNELS 6 Xposition Yposition Zposition Zrotation Xrotation Yrotation
	JOINT Spine1
	{
		OFFSET 0.000000 -0.000023 138.847351
		CHANNELS 6 Xposition Yposition Zposition Zrotation Xrotation Yrotation
		JOINT Neck
		{
			OFFSET 0.000000 -0.000018 110.694000
			CHANNELS 6 Xposition Yposition Zposition Zrotation Xrotation Yrotation
			JOINT Head
			{
				OFFSET 0.000000 -9.081811 70.384003
				CHANNELS 6 Xposition Yposition Zposition Zrotation Xrotation Yrotation
				End Site
				{
					OFFSET 0.000000 -0.000014 90.817780
				}
			}
		}
		JOINT LeftShoulder
		{
			OFFSET 18.288349 2.400605 89.379486
			CHANNELS 6 Xposition Yposition Zposition Zrotation Xrotation Yrotation
			JOINT LeftArm
			{
				OFFSET 65.257996 0.000000 0.000000
				CHANNELS 6 Xposition Yposition Zposition Zrotation Xrotation Yrotation
				JOINT LeftForeArm
				{
					OFFSET 127.960495 0.000000 0.000000
					CHANNELS 6 Xposition Yposition Zposition Zrotation Xrotation Yrotation
					JOINT LeftHand
					{
						OFFSET 118.922485 0.000000 0.000000
						CHANNELS 6 Xposition Yposition Zposition Zrotation Xrotation Yrotation
						End Site
						{
							OFFSET 68.113342 0.000000 0.000000
						}
					}
				}
			}
		}
		JOINT RightShoulder
		{
			OFFSET -18.036051 2.400605 89.379486
			CHANNELS 6 Xposition Yposition Zposition Zrotation Xrotation Yrotation
			JOINT RightArm
			{
				OFFSET -65.257996 0.000000 0.000000
				CHANNELS 6 Xposition Yposition Zposition Zrotation Xrotation Yrotation
				JOINT RightForeArm
				{
					OFFSET -127.960503 0.000000 0.000000
					CHANNELS 6 Xposition Yposition Zposition Zrotation Xrotation Yrotation
					JOINT RightHand
					{
						OFFSET -118.922516 0.000000 0.000000
						CHANNELS 6 Xposition Yposition Zposition Zrotation Xrotation Yrotation
						End Site
						{
							OFFSET -68.113342 0.000000 0.000000
						}
					}
				}
			}
		}
	}
	JOINT LeftUpLeg
	{
		OFFSET 45.409000 0.000000 0.000000
		CHANNELS 6 Xposition Yposition Zposition Zrotation Xrotation Yrotation
		JOINT LeftLeg
		{
			OFFSET 0.000000 0.000031 -190.974503
			CHANNELS 6 Xposition Yposition Zposition Zrotation Xrotation Yrotation
			JOINT LeftFoot
			{
				OFFSET 0.000000 0.000033 -200.215012
				CHANNELS 6 Xposition Yposition Zposition Zrotation Xrotation Yrotation
				JOINT LeftToeBase
				{
					OFFSET 0.000000 -68.113487 -29.515839
					CHANNELS 6 Xposition Yposition Zposition Zrotation Xrotation Yrotation
					End Site
					{
						OFFSET 0.000000 -18.163559 0.000000
					}
				}
			}
		}
	}
	JOINT RightUpLeg
	{
		OFFSET -45.409000 0.000000 0.000000
		CHANNELS 6 Xposition Yposition Zposition Zrotation Xrotation Yrotation
		JOINT RightLeg
		{
			OFFSET 0.000000 0.000031 -190.974503
			CHANNELS 6 Xposition Yposition Zposition Zrotation Xrotation Yrotation
			JOINT RightFoot
			{
				OFFSET 0.000000 0.000033 -200.215012
				CHANNELS 6 Xposition Yposition Zposition Zrotation Xrotation Yrotation
				JOINT RightToeBase
				{
					OFFSET 0.000000 -68.113487 -29.515839
					CHANNELS 6 Xposition Yposition Zposition Zrotation Xrotation Yrotation
					End Site
					{
						OFFSET 0.000000 -18.163559 0.000000
					}
				}
			}
		}
	}
}
MOTION
Frames: 10
Frame Time: 0.041667
15.701261 21.547979 372.761627 2.321249 11.644960 -1.484607 -0.000004 -0.000016 138.847336 -1.260536 -5.134360 -4.388903 -0.000005 -0.000015 110.694069 2.566712 5.719504 -2.454551 0.000001 -9.081782 70.383942 3.029359 9.960382 3.548843 18.288347 2.400609 89.379539 0.092900 -8.889846 -21.667617 65.257957 -0.000002 -0.000074 -8.353394 -9.949527 8.424306 127.960518 0.000009 0.000001 -1.958462 -9.683146 -2.628853 118.922470 -0.000009 0.000009 3.917414 -9.465426 7.756330 -18.036058 2.400603 89.379509 -6.162881 -4.679598 18.289322 -65.258018 -0.000001 -0.000073 20.932353 21.986809 -1.849126 -127.960533 -0.000007 0.000007 66.873214 35.506742 47.151528 -118.922577 0.000100 0.000008 5.605003 5.440236 28.128944 45.408993 0.000004 -0.000019 19.050116 -35.338446 -14.124811 -0.000022 0.000037 -190.974564 6.859589 33.304870 6.372816 -0.000017 0.000026 -200.215042 15.106594 0.260709 8.253559 0.000005 -68.113464 -29.515873 -0.000001 0.000002 0.000001 -45.409004 0.000007 -0.000011 5.643539 -29.410467 30.469740 0.000022 0.000033 -190.974518 -15.580213 40.125254 -20.193598 0.000010 0.000033 -200.215027 -32.494748 -13.409639 2.417767 0.000013 -68.113480 -29.515871 -0.000001 0.000002 0.000000 
16.021538 21.444023 372.464783 2.261051 11.568241 -1.495872 0.000002 -0.000008 138.847336 -1.202918 -5.052497 -4.428539 -0.000002 -0.000016 110.694023 2.560074 5.749437 -2.394912 -0.000012 -9.081787 70.383942 3.016242 10.007667 3.567247 18.288343 2.400604 89.379448 0.115450 -8.887615 -21.639258 65.258018 -0.000005 0.000012 -8.332676 -9.948064 8.472885 127.960510 -0.000006 0.000006 -1.944444 -9.716085 -2.634752 118.922523 0.000018 -0.000004 3.943849 -9.494821 7.802548 -18.036053 2.400608 89.379509 -6.166198 -4.645137 18.277771 -65.257980 -0.000013 -0.000106 20.932262 21.914980 -1.964994 -127.960495 0.000012 0.000080 67.138430 35.692755 47.190224 -118.922539 -0.000016 0.000061 5.588468 5.442591 27.985698 45.409004 0.000010 0.000002 19.024589 -35.344836 -14.298564 0.000005 0.000026 -190.974487 6.826347 33.621261 6.620832 0.000002 0.000043 -200.215027 15.154296 -0.090948 8.402437 0.000005 -68.113487 -29.515837 0.000003 -0.000000 -0.000001 -45.408997 0.000010 -0.000004 5.537793 -29.217995 30.708773 -0.000013 0.000043 -190.974487 -15.943854 40.164033 -20.347463 0.000007 0.000020 -200.215042 -32.548075 -13.318565 1.980882 -0.000004 -68.113472 -29.515839 -0.000003 0.000001 0.000000 
16.357777 21.349367 372.149872 2.180122 11.514035 -1.483382 0.000001 -0.000026 138.847321 -1.128713 -4.995679 -4.491201 -0.000007 -0.000026 110.693993 2.555072 5.796550 -2.325058 -0.000001 -9.081842 70.383865 3.003031 10.012495 3.547429 18.288340 2.400604 89.379433 0.101431 -8.902394 -21.644803 65.257973 -0.000002 -0.000057 -8.288760 -9.919788 8.550099 127.960464 0.000012 -0.000006 -1.915154 -9.762169 -2.605469 118.922455 0.000016 0.000052 3.977094 -9.538146 7.785322 -18.036058 2.400605 89.379448 -6.140711 -4.642047 18.247301 -65.257996 0.000004 0.000071 20.908123 21.805685 -2.066224 -127.960472 0.000012 0.000027 67.347824 35.948781 47.198082 -118.922554 -0.000006 0.000017 5.534961 5.590458 27.930998 45.409004 0.000006 0.000007 19.062394 -35.403968 -14.428186 -0.000018 0.000030 -190.974518 6.932063 33.967624 6.719473 0.000003 0.000004 -200.214996 15.038147 -0.427412 8.548672 -0.000006 -68.113495 -29.515835 -0.000000 -0.000003 -0.000002 -45.409004 0.000002 -0.000006 5.434014 -29.068267 30.924481 -0.000005 0.000041 -190.974472 -16.270395 40.202326 -20.503263 -0.000012 0.000035 -200.215027 -32.550438 -13.120863 1.705143 0.000003 -68.113495 -29.515841 -0.000004 0.000002 0.000000 
16.650326 21.199192 371.859253 2.059616 11.464062 -1.476722 -0.000002 -0.000026 138.847305 -1.019655 -4.946141 -4.529881 0.000001 -0.000032 110.694023 2.537358 5.830106 -2.309290 0.000006 -9.081794 70.383995 2.983475 10.052136 3.597847 18.288357 2.400595 89.379433 0.115765 -8.915326 -21.638811 65.258018 -0.000003 0.000047 -8.280547 -10.019891 8.593307 127.960518 -0.000005 -0.000071 -1.829874 -9.714527 -2.571790 118.922462 0.000015 0.000006 3.934042 -9.488944 7.843678 -18.036047 2.400596 89.379471 -6.175521 -4.602705 18.209467 -65.257996 -0.000004 -0.000047 20.970066 21.657490 -2.170434 -127.960503 -0.000033 0.000074 67.490506 36.193258 47.235242 -118.922546 0.000023 0.000040 5.453285 5.738859 27.889553 45.408997 0.000004 -0.000024 18.849131 -35.370674 -14.727894 -0.000007 0.000022 -190.974503 6.883528 34.265901 7.058223 -0.000017 0.000002 -200.214996 15.183707 -0.764764 8.526183 -0.000004 -68.113464 -29.515869 -0.000000 0.000001 -0.000001 -45.409000 -0.000000 -0.000025 5.433450 -28.893199 31.154279 -0.000028 0.000037 -190.974472 -16.489134 40.188809 -20.693231 0.000014 0.000028 -200.214981 -32.549649 -12.894867 1.238034 0.000007 -68.113487 -29.515841 0.000003 0.000000 -0.000002 
16.937294 21.073469 371.557434 1.922479 11.422314 -1.445872 -0.000001 -0.000013 138.847351 -0.918915 -4.897422 -4.605043 -0.000004 -0.000022 110.694023 2.536109 5.873248 -2.284809 0.000007 -9.081821 70.383972 2.980797 10.061455 3.647805 18.288342 2.400600 89.379440 0.107742 -8.926381 -21.620154 65.258003 -0.000000 0.000026 -8.215664 -10.081271 8.638946 127.960487 0.000000 -0.000003 -1.800314 -9.706191 -2.537741 118.922523 0.000023 0.000034 3.969995 -9.478215 7.807839 -18.036058 2.400600 89.379532 -6.179905 -4.574553 18.169480 -65.257996 -0.000005 -0.000098 21.022120 21.556183 -2.240333 -127.960464 0.000003 -0.000038 67.712153 36.341480 47.225670 -118.922546 0.000087 0.000042 5.532297 5.799674 27.944906 45.408997 0.000004 -0.000009 18.775034 -35.378491 -14.957894 0.000005 0.000039 -190.974503 6.713644 34.544969 7.382772 0.000014 0.000017 -200.215042 15.330802 -1.065503 8.528037 -0.000008 -68.113472 -29.515839 -0.000002 -0.000000 0.000002 -45.409000 0.000012 0.000029 5.410900 -28.749567 31.301767 -0.000016 0.000027 -190.974518 -16.690008 40.132450 -20.765887 0.000011 0.000036 -200.215057 -32.482771 -12.485702 0.610482 0.000008 -68.113480 -29.515837 0.000001 -0.000002 -0.000000 
17.214956 20.969614 371.284973 1.781154 11.409217 -1.411268 -0.000002 -0.000025 138.847351 -0.811321 -4.911805 -4.662770 0.000003 -0.000013 110.694084 2.524039 5.955300 -2.276008 -0.000010 -9.081799 70.383957 2.966488 10.062898 3.677126 18.288357 2.400607 89.379570 0.135316 -8.922288 -21.641038 65.257935 -0.000001 -0.000011 -8.209180 -10.211280 8.717040 127.960480 0.000014 0.000049 -1.719680 -9.653451 -2.528737 118.922531 -0.000003 0.000046 3.997095 -9.419577 7.869700 -18.036055 2.400603 89.379570 -6.144207 -4.582167 18.154945 -65.258003 -0.000006 0.000038 21.071960 21.536881 -2.397041 -127.960503 0.000012 0.000014 67.792086 36.555579 47.341769 -118.922569 -0.000043 0.000049 5.441566 5.887716 27.988268 45.408997 0.000006 -0.000010 18.701558 -35.429837 -15.123588 0.000008 0.000013 -190.974503 6.865830 34.840068 7.420457 0.000014 0.000029 -200.214996 15.243761 -1.303803 8.540638 -0.000012 -68.113503 -29.515869 -0.000001 0.000000 0.000000 -45.409004 -0.000003 -0.000040 5.406622 -28.631111 31.446874 -0.000008 0.000033 -190.974518 -16.869181 40.034392 -20.834845 0.000014 0.000040 -200.214996 -32.245941 -11.969118 0.239554 0.000004 -68.113480 -29.515841 -0.000004 0.000000 -0.000002 
17.484035 20.891113 371.015228 1.651148 11.420197 -1.396284 -0.000001 -0.000025 138.847336 -0.738491 -4.944915 -4.757171 -0.000009 -0.000011 110.694069 2.539895 6.020116 -2.208094 0.000013 -9.081799 70.383957 2.975942 10.070332 3.685148 18.288353 2.400609 89.379547 0.161193 -8.913434 -21.584619 65.258072 -0.000001 0.000070 -8.194031 -10.216829 8.752680 127.960480 0.000003 0.000049 -1.647265 -9.635058 -2.468802 118.922546 0.000024 0.000036 3.999163 -9.399969 7.830461 -18.036060 2.400615 89.379578 -6.126391 -4.570956 18.172608 -65.258018 0.000004 -0.000004 21.113571 21.391335 -2.479515 -127.960503 -0.000039 0.000076 68.050493 36.692650 47.262635 -118.922546 0.000015 0.000041 5.531379 5.965138 27.896096 45.408997 -0.000002 0.000005 18.648689 -35.493259 -15.247274 -0.000014 0.000024 -190.974518 6.815066 35.102784 7.573592 0.000002 0.000012 -200.214981 15.305011 -1.512865 8.574778 0.000010 -68.113472 -29.515869 0.000001 -0.000000 0.000001 -45.408997 -0.000001 -0.000004 5.446621 -28.528729 31.640879 -0.000020 0.000018 -190.974442 -17.012027 39.906832 -20.970060 -0.000005 0.000034 -200.215073 -31.922924 -11.312534 -0.022097 -0.000002 -68.113487 -29.515841 -0.000002 0.000001 -0.000001 
17.807491 20.849527 370.762756 1.510207 11.451604 -1.404203 0.000001 -0.000026 138.847321 -0.655712 -5.000759 -4.783739 -0.000001 -0.000018 110.693932 2.539580 6.107819 -2.190652 -0.000005 -9.081813 70.384010 2.973436 10.043244 3.705130 18.288347 2.400611 89.379448 0.213990 -8.915943 -21.601457 65.257973 0.000000 0.000056 -8.195903 -10.332322 8.802174 127.960503 0.000012 -0.000036 -1.530377 -9.546975 -2.387585 118.922539 -0.000014 -0.000033 3.989403 -9.306137 7.910933 -18.036058 2.400607 89.379448 -6.100629 -4.541162 18.133995 -65.258018 -0.000005 -0.000092 21.161968 21.260861 -2.557308 -127.960503 -0.000043 -0.000054 68.261443 36.831747 47.232674 -118.922546 0.000019 0.000016 5.536107 6.019470 27.910028 45.409000 -0.000011 -0.000060 18.533650 -35.554512 -15.373089 -0.000022 0.000023 -190.974518 6.864436 35.372088 7.700432 -0.000005 0.000013 -200.214996 15.347954 -1.696493 8.522445 -0.000009 -68.113472 -29.515837 -0.000002 -0.000001 0.000001 -45.409000 -0.000000 -0.000032 5.473211 -28.534340 31.793930 -0.000012 0.000023 -190.974472 -17.365985 39.887270 -20.806329 0.000010 0.000050 -200.215012 -31.340784 -10.883357 -0.011428 0.000001 -68.113503 -29.515837 0.000002 -0.000001 0.000000 
18.075712 20.754862 370.538544 1.390003 11.456836 -1.395324 -0.000003 -0.000030 138.847366 -0.610844 -5.021346 -4.840737 -0.000005 -0.000024 110.693932 2.553886 6.149730 -2.171451 0.000001 -9.081789 70.384071 2.986296 10.069833 3.735912 18.288349 2.400605 89.379395 0.269242 -8.908496 -21.556719 65.258018 -0.000007 0.000025 -8.190528 -10.298073 8.793799 127.960510 0.000012 0.000018 -1.461147 -9.483106 -2.317755 118.922539 -0.000036 0.000032 4.030387 -9.234175 7.995658 -18.036062 2.400599 89.379433 -6.025792 -4.561850 18.126081 -65.258026 -0.000001 0.000054 21.177731 21.303813 -2.639923 -127.960457 -0.000002 -0.000023 68.392624 36.939910 47.337418 -118.922577 0.000034 0.000050 5.484960 5.955471 27.875064 45.409000 -0.000006 0.000011 18.429568 -35.603806 -15.505743 -0.000022 0.000025 -190.974548 6.822651 35.618689 7.837651 0.000002 0.000008 -200.214981 15.402128 -1.818670 8.461745 -0.000006 -68.113472 -29.515837 -0.000004 -0.000001 -0.000000 -45.409000 -0.000005 0.000006 5.543594 -28.402787 31.935974 0.000015 0.000023 -190.974503 -17.604495 39.809986 -20.930338 -0.000009 0.000048 -200.215012 -31.448899 -10.789511 -0.782810 -0.000000 -68.113472 -29.515839 -0.000004 -0.000001 -0.000000 
18.379107 20.693176 370.314697 1.294210 11.475599 -1.409606 -0.000000 -0.000028 138.847321 -0.566129 -5.047685 -4.876509 0.000010 -0.000020 110.694054 2.562369 6.184341 -2.141668 -0.000005 -9.081816 70.383942 2.992126 10.069069 3.741764 18.288359 2.400608 89.379524 0.298930 -8.915517 -21.545010 65.258011 -0.000001 0.000002 -8.173512 -10.276342 8.825692 127.960526 -0.000003 0.000014 -1.384422 -9.435582 -2.245524 118.922485 0.000007 -0.000052 4.002851 -9.185203 8.022294 -18.036047 2.400601 89.379532 -6.010454 -4.584194 18.119599 -65.258003 0.000002 -0.000010 21.228260 21.211281 -2.697317 -127.960495 0.000005 0.000038 68.649241 37.004640 47.250074 -118.922569 0.000041 0.000069 5.594293 5.959218 27.838441 45.409000 -0.000004 -0.000024 18.299381 -35.653885 -15.614615 -0.000018 0.000020 -190.974533 6.983753 35.858121 7.886312 0.000006 0.000012 -200.214966 15.322986 -1.911005 8.294713 0.000002 -68.113503 -29.515841 -0.000002 0.000001 0.000000 -45.409004 -0.000003 -0.000050 5.640480 -28.337249 32.160813 0.000003 0.000031 -190.974503 -17.421046 39.728362 -21.302530 0.000000 0.000034 -200.214996 -31.607353 -10.673562 -1.329957 0.000006 -68.113480 -29.515839 0.000000 -0.000001 -0.000001 
